{
  "accessors": [
    {
      "bufferView": 2,
      "componentType": 5126,
      "count": 4704,
      "max": [
        1.0,
        1.0,
        1.0
      ],
      "min": [
        -1.0,
        -1.0,
        -1.0
      ],
      "type": "VEC3"
    },
    {
      "bufferView": 2,
      "byteOffset": 56448,
      "componentType": 5126,
      "count": 4704,
      "max": [
        1.0,
        1.0,
        1.0
      ],
      "min": [
        -1.0,
        -1.0,
        -1.0
      ],
      "type": "VEC3"
    },
    {
      "bufferView": 1,
      "componentType": 5126,
      "count": 4704,
      "max": [
        0.9997966885566711,
        0.7032337188720703
      ],
      "min": [
        0.0002033710479736328,
        0.0002033710479736328
      ],
      "type": "VEC2"
    },
    {
      "bufferView": 0,
      "componentType": 5125,
      "count": 7044,
      "type": "SCALAR"
    },
    {
      "bufferView": 2,
      "byteOffset": 112896,
      "componentType": 5126,
      "count": 4704,
      "max": [
        1.0,
        1.0,
        1.0
      ],
      "min": [
        -1.0,
        -1.0,
        -1.0
      ],
      "type": "VEC3"
    },
    {
      "bufferView": 2,
      "byteOffset": 169344,
      "componentType": 5126,
      "count": 4704,
      "max": [
        1.0,
        1.0,
        1.0
      ],
      "min": [
        -1.0,
        -1.0,
        -1.0
      ],
      "type": "VEC3"
    },
    {
      "bufferView": 1,
      "byteOffset": 37632,
      "componentType": 5126,
      "count": 4704,
      "max": [
        0.9997966885566711,
        0.7032337188720703
      ],
      "min": [
        0.0002033710479736328,
        0.0002033710479736328
      ],
      "type": "VEC2"
    },
    {
      "bufferView": 0,
      "byteOffset": 28176,
      "componentType": 5125,
      "count": 7044,
      "type": "SCALAR"
    },
    {
      "bufferView": 2,
      "byteOffset": 225792,
      "componentType": 5126,
      "count": 4704,
      "max": [
        1.0,
        1.0,
        1.0
      ],
      "min": [
        -1.0,
        -1.0,
        -1.0
      ],
      "type": "VEC3"
    },
    {
      "bufferView": 2,
      "byteOffset": 282240,
      "componentType": 5126,
      "count": 4704,
      "max": [
        1.0,
        1.0,
        1.0
      ],
      "min": [
        -1.0,
        -1.0,
        -1.0
      ],
      "type": "VEC3"
    },
    {
      "bufferView": 1,
      "byteOffset": 75264,
      "componentType": 5126,
      "count": 4704,
      "max": [
        0.9997966885566711,
        0.7032337188720703
      ],
      "min": [
        0.0002033710479736328,
        0.0002033710479736328
      ],
      "type": "VEC2"
    },
    {
      "bufferView": 0,
      "byteOffset": 56352,
      "componentType": 5125,
      "count": 7044,
      "type": "SCALAR"
    },
    {
      "bufferView": 2,
      "byteOffset": 338688,
      "componentType": 5126,
      "count": 4704,
      "max": [
        1.0,
        1.0,
        1.0
      ],
      "min": [
        -1.0,
        -1.0,
        -1.0
      ],
      "type": "VEC3"
    },
    {
      "bufferView": 2,
      "byteOffset": 395136,
      "componentType": 5126,
      "count": 4704,
      "max": [
        1.0,
        1.0,
        1.0
      ],
      "min": [
        -1.0,
        -1.0,
        -1.0
      ],
      "type": "VEC3"
    },
    {
      "bufferView": 1,
      "byteOffset": 112896,
      "componentType": 5126,
      "count": 4704,
      "max": [
        0.9997966885566711,
        0.7032337188720703
      ],
      "min": [
        0.0002033710479736328,
        0.0002033710479736328
      ],
      "type": "VEC2"
    },
    {
      "bufferView": 0,
      "byteOffset": 84528,
      "componentType": 5125,
      "count": 7044,
      "type": "SCALAR"
    },
    {
      "bufferView": 2,
      "byteOffset": 451584,
      "componentType": 5126,
      "count": 2732,
      "max": [
        0.05321879684925079,
        0.04058389365673065,
        0.001785622676834464
      ],
      "min": [
        -0.04173088073730469,
        -0.04108138009905815,
        -0.001786395674571395
      ],
      "type": "VEC3"
    },
    {
      "bufferView": 2,
      "byteOffset": 484368,
      "componentType": 5126,
      "count": 2732,
      "max": [
        1.0,
        0.9999305009841919,
        1.0
      ],
      "min": [
        -0.9999988675117493,
        -0.9999989867210388,
        -1.0
      ],
      "type": "VEC3"
    },
    {
      "bufferView": 1,
      "byteOffset": 150528,
      "componentType": 5126,
      "count": 2732,
      "max": [
        0.9996961951255798,
        0.8925398588180542
      ],
      "min": [
        0.0003038225695490837,
        0.00030382536351680756
      ],
      "type": "VEC2"
    },
    {
      "bufferView": 0,
      "byteOffset": 112704,
      "componentType": 5125,
      "count": 6726,
      "type": "SCALAR"
    }
  ],
  "asset": {
    "extras": {
      "author": "Anshi No Wara (https://sketchfab.com/AnshiNoWara)",
      "license": "CC-BY-4.0 (http://creativecommons.org/licenses/by/4.0/)",
      "source": "https://sketchfab.com/3d-models/photoshop-logo-08ae5552e71645beb538d0f081538927",
      "title": "Photoshop Logo"
    },
    "generator": "Sketchfab-10.50.0",
    "version": "2.0"
  },
  "bufferViews": [
    {
      "buffer": 0,
      "byteLength": 139608,
      "name": "floatBufferViews",
      "target": 34963
    },
    {
      "buffer": 0,
      "byteLength": 172384,
      "byteOffset": 139608,
      "byteStride": 8,
      "name": "floatBufferViews",
      "target": 34962
    },
    {
      "buffer": 0,
      "byteLength": 517152,
      "byteOffset": 311992,
      "byteStride": 12,
      "name": "floatBufferViews",
      "target": 34962
    }
  ],
  "buffers": [
    {
      "byteLength": 829144,
      "uri": "scene.bin"
    }
  ],
  "extensionsUsed": [
    "KHR_materials_unlit"
  ],
  "images": [
    {
      "uri": "textures/Material.001_baseColor.png"
    },
    {
      "uri": "textures/Material.002_baseColor.png"
    },
    {
      "uri": "textures/Material.003_baseColor.png"
    }
  ],
  "materials": [
    {
      "extensions": {
        "KHR_materials_unlit": {}
      },
      "name": "Material.001",
      "pbrMetallicRoughness": {
        "baseColorTexture": {
          "index": 0
        },
        "metallicFactor": 0.0
      }
    },
    {
      "extensions": {
        "KHR_materials_unlit": {}
      },
      "name": "Material.002",
      "pbrMetallicRoughness": {
        "baseColorTexture": {
          "index": 1
        },
        "metallicFactor": 0.0
      }
    },
    {
      "extensions": {
        "KHR_materials_unlit": {}
      },
      "name": "Material.003",
      "pbrMetallicRoughness": {
        "baseColorTexture": {
          "index": 2
        },
        "metallicFactor": 0.0
      }
    },
    {
      "extensions": {
        "KHR_materials_unlit": {}
      },
      "name": "Material.004",
      "pbrMetallicRoughness": {
        "baseColorTexture": {
          "index": 1
        },
        "metallicFactor": 0.0
      }
    },
    {
      "doubleSided": true,
      "extensions": {
        "KHR_materials_unlit": {}
      },
      "name": "SVGMat.001",
      "pbrMetallicRoughness": {
        "baseColorTexture": {
          "index": 0
        },
        "metallicFactor": 0.0
      }
    }
  ],
  "meshes": [
    {
      "name": "Large Cube_Material.001_0",
      "primitives": [
        {
          "attributes": {
            "NORMAL": 1,
            "POSITION": 0,
            "TEXCOORD_0": 2
          },
          "indices": 3,
          "material": 0,
          "mode": 4
        }
      ]
    },
    {
      "name": "Large Cube2_Material.002_0",
      "primitives": [
        {
          "attributes": {
            "NORMAL": 5,
            "POSITION": 4,
            "TEXCOORD_0": 6
          },
          "indices": 7,
          "material": 1,
          "mode": 4
        }
      ]
    },
    {
      "name": "Small Cube_Material.003_0",
      "primitives": [
        {
          "attributes": {
            "NORMAL": 9,
            "POSITION": 8,
            "TEXCOORD_0": 10
          },
          "indices": 11,
          "material": 2,
          "mode": 4
        }
      ]
    },
    {
      "name": "Small Cube2_Material.004_0",
      "primitives": [
        {
          "attributes": {
            "NORMAL": 13,
            "POSITION": 12,
            "TEXCOORD_0": 14
          },
          "indices": 15,
          "material": 3,
          "mode": 4
        }
      ]
    },
    {
      "name": "PS_SVGMat.001_0",
      "primitives": [
        {
          "attributes": {
            "NORMAL": 17,
            "POSITION": 16,
            "TEXCOORD_0": 18
          },
          "indices": 19,
          "material": 4,
          "mode": 4
        }
      ]
    }
  ],
  "nodes": [
    {
      "children": [
        1
      ],
      "matrix": [
        1.0,
        0.0,
        0.0,
        0.0,
        0.0,
        2.220446049250313e-16,
        -1.0,
        0.0,
        0.0,
        1.0,
        2.220446049250313e-16,
        0.0,
        0.0,
        0.0,
        0.0,
        1.0
      ],
      "name": "Sketchfab_model"
    },
    {
      "children": [
        2
      ],
      "matrix": [
        1.0,
        0.0,
        0.0,
        0.0,
        0.0,
        0.0,
        1.0,
        0.0,
        0.0,
        -1.0,
        0.0,
        0.0,
        0.0,
        0.0,
        0.0,
        1.0
      ],
      "name": "Photoshop Logo.fbx"
    },
    {
      "children": [
        3,
        5,
        7,
        9,
        11
      ],
      "name": "RootNode"
    },
    {
      "children": [
        4
      ],
      "matrix": [
        438.49267578125,
        0.0,
        0.0,
        0.0,
        0.0,
        -7.143952464662331e-05,
        -438.4926757812442,
        0.0,
        0.0,
        438.4926757812442,
        -7.143952464662331e-05,
        0.0,
        0.0,
        0.0,
        0.0,
        1.0
      ],
      "name": "Large Cube"
    },
    {
      "mesh": 0,
      "name": "Large Cube_Material.001_0"
    },
    {
      "children": [
        6
      ],
      "matrix": [
        401.8248596191406,
        0.0,
        0.0,
        0.0,
        0.0,
        -6.546557912567768e-05,
        -401.82485961913534,
        0.0,
        0.0,
        401.82485961913534,
        -6.546557912567768e-05,
        0.0,
        0.0,
        0.0,
        0.0,
        1.0
      ],
      "name": "Large Cube2"
    },
    {
      "mesh": 1,
      "name": "Large Cube2_Material.002_0"
    },
    {
      "children": [
        8
      ],
      "matrix": [
        153.5146617997405,
        -153.51465020970647,
        -2.5361012022540735e-05,
        0.0,
        -4.2943649336388436e-05,
        -7.077769144690226e-06,
        -217.1024780273394,
        0.0,
        153.51465020970255,
        153.5146617997425,
        -3.5370488238016e-05,
        0.0,
        0.0,
        0.0,
        0.0,
        1.0
      ],
      "name": "Small Cube"
    },
    {
      "mesh": 2,
      "name": "Small Cube_Material.003_0"
    },
    {
      "children": [
        10
      ],
      "matrix": [
        146.89422516677234,
        -146.89424909888132,
        -2.426729901705972e-05,
        0.0,
        -4.1091678138404524e-05,
        -6.772533365294783e-06,
        -207.7398071289021,
        0.0,
        146.89424909887757,
        146.8942251667742,
        -3.384511300014171e-05,
        0.0,
        0.0,
        0.0,
        0.0,
        1.0
      ],
      "name": "Small Cube2"
    },
    {
      "mesh": 3,
      "name": "Small Cube2_Material.004_0"
    },
    {
      "children": [
        12
      ],
      "matrix": [
        2712.080810546875,
        0.0,
        0.0,
        0.0,
        0.0,
        2712.0808105468723,
        0.00011854881737482537,
        0.0,
        0.0,
        -0.00011854881737482537,
        2712.0808105468723,
        0.0,
        0.0,
        9.18001651763916,
        0.0,
        1.0
      ],
      "name": "PS"
    },
    {
      "mesh": 4,
      "name": "PS_SVGMat.001_0"
    }
  ],
  "samplers": [
    {
      "magFilter": 9729,
      "minFilter": 9987,
      "wrapS": 10497,
      "wrapT": 10497
    }
  ],
  "scene": 0,
  "scenes": [
    {
      "name": "Sketchfab_Scene",
      "nodes": [
        0
      ]
    }
  ],
  "textures": [
    {
      "sampler": 0,
      "source": 0
    },
    {
      "sampler": 0,
      "source": 1
    },
    {
      "sampler": 0,
      "source": 2
    }
  ]
}
